HIERARCHY
ROOT hip
{
  OFFSET 0 0 0
  CHANNELS 6 Xposition Yposition Zposition Zrotation Yrotation Xrotation
  JOINT abdomen
  {
    OFFSET 0 20.6881 -0.73152
    CHANNELS 3 Zrotation Xrotation Yrotation
    JOINT chest
    {
      OFFSET 0 11.7043 -0.48768
      CHANNELS 3 Zrotation Xrotation Yrotation
      JOINT neck
      {
        OFFSET 0 22.1894 -2.19456
        CHANNELS 3 Zrotation Xrotation Yrotation
        JOINT head
        {
          OFFSET -0.24384 7.07133 1.2192
          CHANNELS 3 Zrotation Xrotation Yrotation
          JOINT leftEye
          {
            OFFSET 4.14528 8.04674 8.04672
            CHANNELS 3 Zrotation Xrotation Yrotation
            End Site
            {
              OFFSET 1 0 0
            }
          }
          JOINT rightEye
          {
            OFFSET -3.6576 8.04674 8.04672
            CHANNELS 3 Zrotation Xrotation Yrotation
            End Site
            {
              OFFSET 1 0 0
            }
          }
        }
      }
      JOINT rCollar
      {
        OFFSET -2.68224 19.2634 -4.8768
        CHANNELS 3 Zrotation Xrotation Yrotation
        JOINT rShldr
        {
          OFFSET -8.77824 -1.95073 1.46304
          CHANNELS 3 Zrotation Xrotation Yrotation
          JOINT rForeArm
          {
            OFFSET -28.1742 -1.7115 0.48768
            CHANNELS 3 Zrotation Xrotation Yrotation
            JOINT rHand
            {
              OFFSET -22.5879 0.773209 7.07136
              CHANNELS 3 Zrotation Xrotation Yrotation
              JOINT rThumb1
              {
                OFFSET -1.2192 -0.487915 3.41376
                CHANNELS 3 Zrotation Xrotation Yrotation
                JOINT rThumb2
                {
                  OFFSET -3.37035 -0.52449 3.41376
                  CHANNELS 3 Zrotation Xrotation Yrotation
                  End Site
                  {
                    OFFSET -1.78271 -1.18214 1.43049
                  }
                }
              }
              JOINT rIndex1
              {
                OFFSET -7.75947 0.938293 5.60832
                CHANNELS 3 Zrotation Xrotation Yrotation
                JOINT rIndex2
                {
                  OFFSET -2.54057 -0.884171 1.56538
                  CHANNELS 3 Zrotation Xrotation Yrotation
                  End Site
                  {
                    OFFSET -1.62519 -0.234802 1.16502
                  }
                }
              }
              JOINT rMid1
              {
                OFFSET -8.24714 1.18213 3.41376
                CHANNELS 3 Zrotation Xrotation Yrotation
                JOINT rMid2
                {
                  OFFSET -3.10165 -0.590103 1.0647
                  CHANNELS 3 Zrotation Xrotation Yrotation
                  End Site
                  {
                    OFFSET -2.48547 -0.328903 0.83742
                  }
                }
              }
              JOINT rRing1
              {
                OFFSET -8.82822 0.546677 1.51678
                CHANNELS 3 Zrotation Xrotation Yrotation
                JOINT rRing2
                {
                  OFFSET -2.60934 -0.819778 -0.0198488
                  CHANNELS 3 Zrotation Xrotation Yrotation
                  End Site
                  {
                    OFFSET -2.33842 -0.294052 0.168128
                  }
                }
              }
              JOINT rPinky1
              {
                OFFSET -8.27202 -0.0477905 -0.4584
                CHANNELS 3 Zrotation Xrotation Yrotation
                JOINT rPinky2
                {
                  OFFSET -1.82734 -0.647385 -0.700984
                  CHANNELS 3 Zrotation Xrotation Yrotation
                  End Site
                  {
                    OFFSET -1.69225 -0.51767 -0.607171
                  }
                }
              }
            }
          }
        }
      }
      JOINT lCollar
      {
        OFFSET 2.68224 19.2634 -4.8768
        CHANNELS 3 Zrotation Xrotation Yrotation
        JOINT lShldr
        {
          OFFSET 8.77824 -1.95073 1.46304
          CHANNELS 3 Zrotation Xrotation Yrotation
          JOINT lForeArm
          {
            OFFSET 28.1742 -1.7115 0.48768
            CHANNELS 3 Zrotation Xrotation Yrotation
            JOINT lHand
            {
              OFFSET 22.5879 0.773209 7.07136
              CHANNELS 3 Zrotation Xrotation Yrotation
              JOINT lThumb1
              {
                OFFSET 1.2192 -0.487915 3.41376
                CHANNELS 3 Zrotation Xrotation Yrotation
                JOINT lThumb2
                {
                  OFFSET 3.37035 -0.52449 3.41376
                  CHANNELS 3 Zrotation Xrotation Yrotation
                  End Site
                  {
                    OFFSET 1.78271 -1.18214 1.43049
                  }
                }
              }
              JOINT lIndex1
              {
                OFFSET 7.75947 0.938293 5.60832
                CHANNELS 3 Zrotation Xrotation Yrotation
                JOINT lIndex2
                {
                  OFFSET 2.54057 -0.884171 1.56538
                  CHANNELS 3 Zrotation Xrotation Yrotation
                  End Site
                  {
                    OFFSET 1.62519 -0.234802 1.16502
                  }
                }
              }
              JOINT lMid1
              {
                OFFSET 8.24714 1.18213 3.41376
                CHANNELS 3 Zrotation Xrotation Yrotation
                JOINT lMid2
                {
                  OFFSET 3.10165 -0.590103 1.0647
                  CHANNELS 3 Zrotation Xrotation Yrotation
                  End Site
                  {
                    OFFSET 2.48547 -0.328903 0.83742
                  }
                }
              }
              JOINT lRing1
              {
                OFFSET 8.82822 0.546677 1.51678
                CHANNELS 3 Zrotation Xrotation Yrotation
                JOINT lRing2
                {
                  OFFSET 2.60934 -0.819778 -0.0198488
                  CHANNELS 3 Zrotation Xrotation Yrotation
                  End Site
                  {
                    OFFSET 2.33842 -0.294052 0.168128
                  }
                }
              }
              JOINT lPinky1
              {
                OFFSET 8.27202 -0.0477905 -0.4584
                CHANNELS 3 Zrotation Xrotation Yrotation
                JOINT lPinky2
                {
                  OFFSET 1.82734 -0.647385 -0.700984
                  CHANNELS 3 Zrotation Xrotation Yrotation
                  End Site
                  {
                    OFFSET 1.69225 -0.51767 -0.607171
                  }
                }
              }
            }
          }
        }
      }
    }
  }
  JOINT rButtock
  {
    OFFSET -8.77824 4.35084 1.2192
    CHANNELS 3 Zrotation Xrotation Yrotation
    JOINT rThigh
    {
      OFFSET 0 -1.70687 -2.19456
      CHANNELS 3 Zrotation Xrotation Yrotation
      JOINT rShin
      {
        OFFSET 0 -36.8199 0.73152
        CHANNELS 3 Zrotation Xrotation Yrotation
        JOINT rFoot
        {
          OFFSET 0.73152 -45.1104 -5.12064
          CHANNELS 3 Zrotation Xrotation Yrotation
          End Site
          {
            OFFSET -1.1221 -3.69964 12.103
          }
        }
      }
    }
  }
  JOINT lButtock
  {
    OFFSET 8.77824 4.35084 1.2192
    CHANNELS 3 Zrotation Xrotation Yrotation
    JOINT lThigh
    {
      OFFSET 0 -1.70687 -2.19456
      CHANNELS 3 Zrotation Xrotation Yrotation
      JOINT lShin
      {
        OFFSET 0 -36.8199 0.73152
        CHANNELS 3 Zrotation Xrotation Yrotation
        JOINT lFoot
        {
          OFFSET -0.73152 -45.1104 -5.12064
          CHANNELS 3 Zrotation Xrotation Yrotation
          End Site
          {
            OFFSET 1.1221 -3.69964 12.103
          }
        }
      }
    }
  }
}
MOTION
Frames:	4
Frame Time:	0.00833333
0.0 0.0 0.0 0.0 0.0 0.0 0.0 0.0 0.0 0.0 0.0 0.0 0.0 0.0 0.0 0.0 0.0 0.0 0.0 0.0 0.0 0.0 0.0 0.0 0.0 0.0 0.0 0.0 0.0 0.0 0.0 0.0 0.0 0.0 0.0 0.0 0.0 0.0 0.0 0.0 0.0 0.0 0.0 0.0 0.0 0.0 0.0 0.0 0.0 0.0 0.0 0.0 0.0 0.0 0.0 0.0 0.0 0.0 0.0 0.0 0.0 0.0 0.0 0.0 0.0 0.0 0.0 0.0 0.0 0.0 0.0 0.0 0.0 0.0 0.0 0.0 0.0 0.0 0.0 0.0 0.0 0.0 0.0 0.0 0.0 0.0 0.0 0.0 0.0 0.0 0.0 0.0 0.0 0.0 0.0 0.0 0.0 0.0 0.0 0.0 0.0 0.0 0.0 0.0 0.0 0.0 0.0 0.0 0.0 0.0 0.0 0.0 0.0 0.0 0.0 0.0 0.0 0.0 0.0 0.0 0.0 0.0 0.0 0.0 0.0 0.0 0.0 0.0 0.0 0.0 0.0 0.0
92.8788 83.6045 -10.198500000000001 4.109696 -67.47847 3.385317 2.857008 -5.833711 -180.0 0.870973 -3.940137 -175.013825 11.508309 14.983857 107.374359 -12.290448 16.032966 -93.044102 -0.000616 -0.0 0.001528 -0.000616 -0.0 0.001528 -155.548131 -3.804145 161.900396 21.865939 -61.018706 28.014165 -4.239274 14.463458 -35.548338 157.162974 -42.98985 136.243506 1.590761 -1.575636 -0.222716 -142.67153 -49.890344 121.334626 -90.225164 41.071375 75.796593 124.914912 -65.118986 72.612735 -89.835568 60.702883 81.262892 -34.427255 55.0591 29.273098 -0.021869 -1.726091 -0.542181 11.251416 -13.787301 -1.716952 -136.042454 -11.442909 -133.39386 17.26408 43.726907 6.190485 -0.023265 -0.138718 0.030051 148.561426 -6.544302 178.741515 143.51948 -41.357296 169.634509 -23.115212 -47.128508 -13.449866 5.262969 5.102964 -1.03734 5.308725 6.412091 -7.683942 -159.639692 -69.972823 -102.395702 -17.110363 -2.025787 8.029977 36.03521 51.723922 -29.830652 129.043041 52.025766 -118.421459 145.100872 -1.439589 178.676972 54.643637 87.5787 -67.97699 113.838579 -39.28322 111.846023 4.897715 -17.69202 8.356483 179.996149 75.749204 0.003168 -177.840563 66.286816 -2.358355 2.612207 10.702145 16.512821 -34.957252 10.082215 -13.699396 -0.004468 0.001839 -0.002234 2.033793 -7.669098 14.901021 6.962163 18.219735 141.690687 -88.945955 -6.781196 172.39367
92.89880000000001 83.5493 -9.7193 3.035632 -67.884938 4.190792 6.051902 -6.566519 -149.049725 1.440848 -3.85501 159.309713 -8.304845 11.609595 -39.974853 16.557043 -4.168233 70.434512 0.000407 -0.0 -0.000684 -0.000411 0.0 -0.00285 3.192115 -25.838889 -5.074158 43.866333 10.671539 -14.588136 2.289056 -6.561845 12.136322 -5.259523 21.397087 0.883873 -5.433551 5.264932 1.078421 -131.83428 -31.643104 113.834394 2.325994 -3.867792 -1.259252 -79.278453 48.124394 62.253062 -160.673338 -6.66783 143.245134 92.056304 -78.191034 63.066616 -0.014843 -1.323026 -0.416696 -23.28499 72.958806 36.420384 -154.406972 46.073067 -149.059602 2.879525 3.023313 -0.894338 -4.234011 -44.500035 8.598392 152.647806 17.65013 151.69012 -5.664209 29.414355 55.447901 -162.407596 -29.130892 -141.605548 171.705762 -9.388627 -89.948378 29.002037 -32.376859 -3.710786 46.208098 39.653807 -36.317396 -4.116151 3.972494 1.899429 0.057998 0.167733 -0.033009 42.066239 58.559931 -36.10001 -0.00068 0.022644 -0.006809 45.09467 -86.467784 66.542933 125.806302 -27.875359 123.549307 -1.946423 -2.844345 2.571583 179.978599 75.750074 0.017608 -179.906103 62.51163 2.603999 -2.289433 25.773041 -106.262931 20.469282 -57.210387 106.372265 179.973954 75.75061 0.017821 -172.576548 61.917033 -6.488214 8.885555 24.741118 106.029919 92.275734 84.349094 172.403215
92.93780000000001 83.4952 -9.2054 2.470638 -68.385806 4.659565 6.622418 -3.089093 0.63523 -2.815053 -2.852138 13.957528 2.472937 12.088024 36.620567 -6.749557 -12.400253 4.897255 0.002706 0.0 0.001738 0.002706 0.0 0.001738 -85.537347 68.181999 88.688892 78.80821 -20.797351 79.49263 -22.707224 -4.198954 2.114301 10.204458 -22.983769 4.710857 -159.653145 2.60087 88.800205 -159.150053 -5.002631 79.363011 -19.168591 24.115755 13.379231 70.843546 -57.484488 25.171249 -151.475992 17.841546 137.538629 -176.172693 -41.090777 142.614021 0.005778 0.91798 0.287003 10.259335 -0.060458 -0.073278 -146.204825 15.406085 -142.730862 18.007159 47.076728 6.206695 -3.192053 -25.838827 5.074965 -62.133285 -2.038883 31.327515 -177.95241 8.977948 -115.383678 -161.244771 -28.806289 -141.97935 173.977579 -11.643086 -89.880145 31.229181 -30.693337 -2.54003 27.422892 30.638999 -20.098276 -14.105603 -9.327721 2.256268 36.035571 51.723401 -29.831841 178.344862 -46.352036 -141.940932 -0.001973 0.02242 -0.008238 -9.702323 -62.549788 9.184587 8.19157 -17.576407 7.726939 147.522916 13.441651 144.052209 -0.0036 -7.9e-05 -0.0018 -0.749445 -16.571007 -5.953109 7.259198 32.607953 134.128759 -79.162247 3.682475 -156.983938 -0.0 0.000895 3.9e-05 4.44833 -20.976043 -158.926395 -16.373276 -34.307788 -2.864983 164.38745 2.869624 -158.761641
